<?xml version="1.0" encoding="UTF-8" standalone="no"?>
<!-- Created with Inkscape (http://www.inkscape.org/) -->

<svg
   xmlns:dc="http://purl.org/dc/elements/1.1/"
   xmlns:cc="http://creativecommons.org/ns#"
   xmlns:rdf="http://www.w3.org/1999/02/22-rdf-syntax-ns#"
   xmlns:svg="http://www.w3.org/2000/svg"
   xmlns="http://www.w3.org/2000/svg"
   xmlns:xlink="http://www.w3.org/1999/xlink"
   xmlns:sodipodi="http://sodipodi.sourceforge.net/DTD/sodipodi-0.dtd"
   xmlns:inkscape="http://www.inkscape.org/namespaces/inkscape"
   width="75.956062"
   height="88"
   id="svg2"
   version="1.1"
   inkscape:version="0.48.3.1 r9886"
   sodipodi:docname="droid.svg"
   inkscape:export-filename="/home/hansenm/Documents/Personal/blog/synesthesiam/files/assets/img/droid.png"
   inkscape:export-xdpi="165.89"
   inkscape:export-ydpi="165.89">
  <defs
     id="defs4">
    <filter
       inkscape:collect="always"
       id="filter4411"
       x="-0.099650486"
       width="1.199301"
       y="-0.11370793"
       height="1.2274159">
      <feGaussianBlur
         inkscape:collect="always"
         stdDeviation="0.4674518"
         id="feGaussianBlur4413" />
    </filter>
    <filter
       inkscape:collect="always"
       id="filter4415"
       x="-0.099650486"
       width="1.199301"
       y="-0.11370793"
       height="1.2274159">
      <feGaussianBlur
         inkscape:collect="always"
         stdDeviation="0.4674518"
         id="feGaussianBlur4417" />
    </filter>
    <filter
       inkscape:collect="always"
       id="filter4419"
       x="-0.032001604"
       width="1.0640032"
       y="-0.47963933"
       height="1.9592787">
      <feGaussianBlur
         inkscape:collect="always"
         stdDeviation="0.17984432"
         id="feGaussianBlur4421" />
    </filter>
  </defs>
  <sodipodi:namedview
     id="base"
     pagecolor="#ffffff"
     bordercolor="#666666"
     borderopacity="1.0"
     inkscape:pageopacity="0.0"
     inkscape:pageshadow="2"
     inkscape:zoom="2.8"
     inkscape:cx="-21.496697"
     inkscape:cy="58.854056"
     inkscape:document-units="px"
     inkscape:current-layer="layer1"
     showgrid="false"
     fit-margin-top="0"
     fit-margin-left="0"
     fit-margin-right="0"
     fit-margin-bottom="0"
     inkscape:window-width="1375"
     inkscape:window-height="876"
     inkscape:window-x="65"
     inkscape:window-y="24"
     inkscape:window-maximized="1" />
  <metadata
     id="metadata7">
    <rdf:RDF>
      <cc:Work
         rdf:about="">
        <dc:format>image/svg+xml</dc:format>
        <dc:type
           rdf:resource="http://purl.org/dc/dcmitype/StillImage" />
        <dc:title></dc:title>
      </cc:Work>
    </rdf:RDF>
  </metadata>
  <g
     inkscape:label="Layer 1"
     inkscape:groupmode="layer"
     id="layer1"
     transform="translate(-44.96875,-171.125)">
    <g
       id="g3032"
       transform="translate(-100,0)">
      <g
         id="g3013">
        <path
           style="fill:#a4c639;fill-opacity:1;stroke:none"
           d="m 182.90625,176.5625 c -13.28481,0 -24.0625,10.3096 -24.0625,21.78125 l 48.125,0 c 0,-11.47165 -10.7777,-21.78125 -24.0625,-21.78125 z m -10.9375,9.46875 c 1.18552,0 2.15625,0.97073 2.15625,2.15625 0,1.18552 -0.97073,2.125 -2.15625,2.125 -1.18552,0 -2.125,-0.93948 -2.125,-2.125 0,-1.18552 0.93948,-2.15625 2.125,-2.15625 z m 22.09375,0 c 1.18552,0 2.15625,0.97073 2.15625,2.15625 0,1.18552 -0.97073,2.125 -2.15625,2.125 -1.18552,0 -2.125,-0.93948 -2.125,-2.125 0,-1.18552 0.93948,-2.15625 2.125,-2.15625 z"
           id="path3000"
           inkscape:connector-curvature="0" />
        <path
           style="fill:none;stroke:#a4c639;stroke-width:2;stroke-linecap:butt;stroke-linejoin:miter;stroke-opacity:1"
           d="m 172.48355,179.96919 -4.79823,-8.33376"
           id="path3003"
           inkscape:connector-curvature="0" />
        <use
           x="0"
           y="0"
           xlink:href="#path3003"
           id="use3005"
           transform="matrix(-1,0,0,1,366.16887,0)"
           width="744.09448"
           height="1052.3622" />
      </g>
      <rect
         ry="4.6088209"
         y="200.55104"
         x="145.96704"
         height="31.440998"
         width="9.2176418"
         id="rect3018"
         style="fill:#a4c639;fill-opacity:1;stroke:#a4c639;stroke-width:2;stroke-linecap:round;stroke-linejoin:round;stroke-miterlimit:4;stroke-opacity:1;stroke-dasharray:none;stroke-dashoffset:0" />
      <rect
         style="fill:#a4c639;fill-opacity:1;stroke:#a4c639;stroke-width:2;stroke-linecap:round;stroke-linejoin:round;stroke-miterlimit:4;stroke-opacity:1;stroke-dasharray:none;stroke-dashoffset:0"
         id="use3020"
         width="9.2176418"
         height="31.440998"
         x="210.70435"
         y="200.55104"
         ry="4.6088209" />
      <path
         sodipodi:nodetypes="csscsssccssscsscc"
         inkscape:connector-curvature="0"
         id="use3022"
         d="m 159.59375,201.47636 0,34.27364 c 0,2.58826 2.09924,4.6875 4.6875,4.6875 l 4.90625,0 0,13.09375 c 0,2.55329 2.04046,4.59375 4.59375,4.59375 2.55329,0 4.625,-2.04046 4.625,-4.59375 l 0,-13.09375 8.78125,0 0,13.09375 c 0,2.55329 2.04046,4.59375 4.59375,4.59375 2.55329,0 4.625,-2.04046 4.625,-4.59375 l 0,-13.09375 5.125,0 c 2.58826,0 4.65625,-2.09924 4.65625,-4.6875 l 0,-34.27364 c -15.53125,3.0489 -31.0625,2.65986 -46.59375,0 z"
         style="fill:#a4c639;fill-opacity:1;stroke:#a4c639;stroke-width:2;stroke-linecap:round;stroke-linejoin:round;stroke-miterlimit:4;stroke-opacity:1;stroke-dasharray:none;stroke-dashoffset:0" />
    </g>
    <g
       transform="matrix(-0.87727851,-0.0150215,-0.0150215,0.87727851,180.7419,171.59514)"
       id="g18849-2-6"
       style="display:inline">
      <path
         inkscape:connector-curvature="0"
         style="opacity:0.35;fill:none;stroke:#000000;stroke-width:0.9184925px;stroke-linecap:round;stroke-linejoin:round;stroke-opacity:1;filter:url(#filter4419)"
         d="m 103.61192,21.743793 c 4.31611,-1.758172 8.92544,-1.7212 13.48774,0.110085"
         id="path14581-3-7-4"
         sodipodi:nodetypes="cc" />
      <path
         inkscape:connector-curvature="0"
         sodipodi:nodetypes="cc"
         id="path14611-3-5-5"
         d="M 93.810285,21.523558 C 92.4496,20.423889 89.172501,19.997466 88.136437,19.41846"
         style="fill:none;stroke:#000000;stroke-width:1.83698499;stroke-linecap:round;stroke-linejoin:round;stroke-opacity:1" />
      <g
         id="g14583-7-0-4"
         transform="matrix(1.0785363,0,0,1.0785363,-90.304337,-131.97008)">
        <path
           inkscape:connector-curvature="0"
           sodipodi:nodetypes="ccccc"
           id="path14585-3-3-3"
           d="m 169.5136,140.27275 c 4.38762,-1.35858 7.70157,-0.5698 11.125,0 l 0,7.875 c -3.70833,1.7303 -7.41667,1.60201 -11.125,0 l 0,-7.875 z"
           style="opacity:0.34000017;fill:#000000;fill-opacity:1;fill-rule:nonzero;stroke:none;filter:url(#filter4411)" />
        <path
           inkscape:connector-curvature="0"
           style="fill:#1a1a1a;fill-opacity:1;fill-rule:nonzero;stroke:#000000;stroke-width:0.85161024;stroke-linecap:round;stroke-linejoin:round;stroke-miterlimit:4;stroke-opacity:1;stroke-dashoffset:0"
           d="m 169.25,138.75 c 4.38762,-1.35858 7.70157,-0.5698 11.125,0 l 0,7.875 c -3.70833,1.7303 -7.41667,1.60201 -11.125,0 l 0,-7.875 z"
           id="path14587-5-4-7"
           sodipodi:nodetypes="ccccc" />
        <path
           inkscape:connector-curvature="0"
           style="fill:#595959;fill-opacity:1;fill-rule:evenodd;stroke:none"
           d="m 169.76014,138.93751 -0.0414,0.89583 c 3.66558,-0.86646 6.77552,-0.28822 10.0573,-0.15678 l 0.0365,-0.5828 c -2.98639,-0.29034 -5.07139,-1.17005 -10.05236,-0.15625 z"
           id="path14589-5-6-3"
           sodipodi:nodetypes="ccccc" />
        <path
           inkscape:connector-curvature="0"
           style="fill:#595959;fill-opacity:1;fill-rule:evenodd;stroke:none"
           d="m 174.96875,139.15626 2.70312,5.03125 -4.92187,-4.96875 2.21875,-0.0625 z"
           id="path14591-1-3-4"
           sodipodi:nodetypes="cccc" />
        <path
           inkscape:connector-curvature="0"
           sodipodi:nodetypes="cccc"
           id="path14593-8-6-7"
           d="m 169.73438,139.51564 3.92187,5.64062 -3.98438,-4.32812 0.0625,-1.3125 z"
           style="fill:#595959;fill-opacity:1;fill-rule:evenodd;stroke:none" />
      </g>
      <path
         inkscape:connector-curvature="0"
         sodipodi:nodetypes="cc"
         id="path14607-7-7-8"
         d="m 103.47734,20.489814 c 5.95613,-1.770273 10.92921,-0.822383 13.59709,0.121765"
         style="fill:none;stroke:#000000;stroke-width:1.37773883;stroke-linecap:round;stroke-linejoin:round;stroke-opacity:1" />
      <path
         inkscape:connector-curvature="0"
         style="fill:none;stroke:#000000;stroke-width:1.83698499;stroke-linecap:round;stroke-linejoin:round;stroke-opacity:1"
         d="m 121.48524,23.869409 c 1.04388,-1.579487 10.40156,-4.812214 12.17921,-4.268065"
         id="path14609-7-2-9"
         sodipodi:nodetypes="cc" />
      <g
         transform="matrix(1.0785363,0,0,1.0785363,-65.355757,-131.83836)"
         id="g14595-1-3-2">
        <path
           inkscape:connector-curvature="0"
           style="opacity:0.34000017;fill:#000000;fill-opacity:1;fill-rule:nonzero;stroke:none;filter:url(#filter4415)"
           d="m 169.5136,140.27275 c 4.38762,-1.35858 7.70157,-0.5698 11.125,0 l 0,7.875 c -3.70833,1.7303 -7.41667,1.60201 -11.125,0 l 0,-7.875 z"
           id="path14597-7-3-1"
           sodipodi:nodetypes="ccccc" />
        <path
           inkscape:connector-curvature="0"
           sodipodi:nodetypes="ccccc"
           id="path14599-6-4-7"
           d="m 169.25,138.75 c 4.38762,-1.35858 7.70157,-0.5698 11.125,0 l 0,7.875 c -3.70833,1.7303 -7.41667,1.60201 -11.125,0 l 0,-7.875 z"
           style="fill:#1a1a1a;fill-opacity:1;fill-rule:nonzero;stroke:#000000;stroke-width:0.85161024;stroke-linecap:round;stroke-linejoin:round;stroke-miterlimit:4;stroke-opacity:1;stroke-dashoffset:0" />
        <path
           inkscape:connector-curvature="0"
           sodipodi:nodetypes="ccccc"
           id="path14601-8-4-9"
           d="m 169.76014,138.93751 -0.0414,0.89583 c 3.66558,-0.86646 6.77552,-0.28822 10.0573,-0.15678 l 0.0365,-0.5828 c -2.98639,-0.29034 -5.07139,-1.17005 -10.05236,-0.15625 z"
           style="fill:#595959;fill-opacity:1;fill-rule:evenodd;stroke:none" />
        <path
           inkscape:connector-curvature="0"
           sodipodi:nodetypes="cccc"
           id="path14603-2-3-5"
           d="m 174.96875,139.15626 2.70312,5.03125 -4.92187,-4.96875 2.21875,-0.0625 z"
           style="fill:#595959;fill-opacity:1;fill-rule:evenodd;stroke:none" />
        <path
           inkscape:connector-curvature="0"
           style="fill:#595959;fill-opacity:1;fill-rule:evenodd;stroke:none"
           d="m 169.73438,139.51564 3.92187,5.64062 -3.98438,-4.32812 0.0625,-1.3125 z"
           id="path14605-4-9-6"
           sodipodi:nodetypes="cccc" />
      </g>
    </g>
    <path
       style="opacity:0.5;fill:none;stroke:#000000;stroke-width:1px;stroke-linecap:round;stroke-linejoin:round;stroke-opacity:1"
       d="m 70.861607,181.625 c 2.703623,-0.62811 5.033459,-0.32174 6.785714,1.42857"
       id="path4423"
       inkscape:connector-curvature="0"
       sodipodi:nodetypes="cc" />
  </g>
</svg>
